<?xml version="1.0" standalone="no"?>
<svg xmlns:xlink="http://www.w3.org/1999/xlink" id="wave" style="transform:rotate(180deg); transition: 0.3s" viewBox="0 0 1440 110" version="1.1" xmlns="http://www.w3.org/2000/svg"><defs><linearGradient id="sw-gradient-0" x1="0" x2="0" y1="1" y2="0"><stop stop-color="rgba(249, 250, 251, 1)" offset="0%"/><stop stop-color="rgba(249, 250, 251, 1)" offset="100%"/></linearGradient></defs><path style="transform:translate(0, 0px); opacity:1" fill="url(#sw-gradient-0)" d="M0,88L40,77C80,66,160,44,240,38.5C320,33,400,44,480,51.3C560,59,640,62,720,64.2C800,66,880,66,960,62.3C1040,59,1120,51,1200,55C1280,59,1360,73,1440,77C1520,81,1600,73,1680,66C1760,59,1840,51,1920,42.2C2000,33,2080,22,2160,25.7C2240,29,2320,48,2400,56.8C2480,66,2560,66,2640,62.3C2720,59,2800,51,2880,53.2C2960,55,3040,66,3120,60.5C3200,55,3280,33,3360,23.8C3440,15,3520,18,3600,22C3680,26,3760,29,3840,38.5C3920,48,4000,62,4080,66C4160,70,4240,62,4320,58.7C4400,55,4480,55,4560,51.3C4640,48,4720,40,4800,31.2C4880,22,4960,11,5040,18.3C5120,26,5200,51,5280,55C5360,59,5440,40,5520,38.5C5600,37,5680,51,5720,58.7L5760,66L5760,110L5720,110C5680,110,5600,110,5520,110C5440,110,5360,110,5280,110C5200,110,5120,110,5040,110C4960,110,4880,110,4800,110C4720,110,4640,110,4560,110C4480,110,4400,110,4320,110C4240,110,4160,110,4080,110C4000,110,3920,110,3840,110C3760,110,3680,110,3600,110C3520,110,3440,110,3360,110C3280,110,3200,110,3120,110C3040,110,2960,110,2880,110C2800,110,2720,110,2640,110C2560,110,2480,110,2400,110C2320,110,2240,110,2160,110C2080,110,2000,110,1920,110C1840,110,1760,110,1680,110C1600,110,1520,110,1440,110C1360,110,1280,110,1200,110C1120,110,1040,110,960,110C880,110,800,110,720,110C640,110,560,110,480,110C400,110,320,110,240,110C160,110,80,110,40,110L0,110Z"/></svg>