<?xml version="1.0" standalone="no"?>
<svg xmlns:xlink="http://www.w3.org/1999/xlink" id="wave" style="transform:rotate(180deg); transition: 0.3s" viewBox="0 0 1440 240" version="1.1" xmlns="http://www.w3.org/2000/svg"><defs><linearGradient id="sw-gradient-0" x1="0" x2="0" y1="1" y2="0"><stop stop-color="rgba(249, 250, 251, 1)" offset="0%"/><stop stop-color="rgba(249, 250, 251, 1)" offset="100%"/></linearGradient></defs><path style="transform:translate(0, 0px); opacity:1" fill="url(#sw-gradient-0)" d="M0,24L80,52C160,80,320,136,480,156C640,176,800,160,960,144C1120,128,1280,112,1440,88C1600,64,1760,32,1920,48C2080,64,2240,128,2400,156C2560,184,2720,176,2880,168C3040,160,3200,152,3360,156C3520,160,3680,176,3840,152C4000,128,4160,64,4320,52C4480,40,4640,80,4800,88C4960,96,5120,72,5280,64C5440,56,5600,64,5760,68C5920,72,6080,72,6240,60C6400,48,6560,24,6720,24C6880,24,7040,48,7200,72C7360,96,7520,120,7680,128C7840,136,8000,128,8160,112C8320,96,8480,72,8640,64C8800,56,8960,64,9120,92C9280,120,9440,168,9600,164C9760,160,9920,104,10080,96C10240,88,10400,128,10560,136C10720,144,10880,120,11040,120C11200,120,11360,144,11440,156L11520,168L11520,240L11440,240C11360,240,11200,240,11040,240C10880,240,10720,240,10560,240C10400,240,10240,240,10080,240C9920,240,9760,240,9600,240C9440,240,9280,240,9120,240C8960,240,8800,240,8640,240C8480,240,8320,240,8160,240C8000,240,7840,240,7680,240C7520,240,7360,240,7200,240C7040,240,6880,240,6720,240C6560,240,6400,240,6240,240C6080,240,5920,240,5760,240C5600,240,5440,240,5280,240C5120,240,4960,240,4800,240C4640,240,4480,240,4320,240C4160,240,4000,240,3840,240C3680,240,3520,240,3360,240C3200,240,3040,240,2880,240C2720,240,2560,240,2400,240C2240,240,2080,240,1920,240C1760,240,1600,240,1440,240C1280,240,1120,240,960,240C800,240,640,240,480,240C320,240,160,240,80,240L0,240Z"/></svg>