<?xml version="1.0" standalone="no"?>
<svg xmlns:xlink="http://www.w3.org/1999/xlink" id="wave" style="transform:rotate(180deg); transition: 0.3s" viewBox="0 0 1440 100" version="1.1" xmlns="http://www.w3.org/2000/svg"><defs><linearGradient id="sw-gradient-0" x1="0" x2="0" y1="1" y2="0"><stop stop-color="rgba(126, 58, 242, 1)" offset="0%"/><stop stop-color="rgba(244, 216, 255, 1)" offset="100%"/></linearGradient></defs><path style="transform:translate(0, 0px); opacity:1" fill="url(#sw-gradient-0)" d="M0,90L34.3,78.3C68.6,67,137,43,206,31.7C274.3,20,343,20,411,25C480,30,549,40,617,48.3C685.7,57,754,63,823,58.3C891.4,53,960,37,1029,33.3C1097.1,30,1166,40,1234,38.3C1302.9,37,1371,23,1440,30C1508.6,37,1577,63,1646,73.3C1714.3,83,1783,77,1851,63.3C1920,50,1989,30,2057,31.7C2125.7,33,2194,57,2263,55C2331.4,53,2400,27,2469,15C2537.1,3,2606,7,2674,11.7C2742.9,17,2811,23,2880,30C2948.6,37,3017,43,3086,38.3C3154.3,33,3223,17,3291,11.7C3360,7,3429,13,3497,25C3565.7,37,3634,53,3703,51.7C3771.4,50,3840,30,3909,28.3C3977.1,27,4046,43,4114,43.3C4182.9,43,4251,27,4320,20C4388.6,13,4457,17,4526,26.7C4594.3,37,4663,53,4731,53.3C4800,53,4869,37,4903,28.3L4937.1,20L4937.1,100L4902.9,100C4868.6,100,4800,100,4731,100C4662.9,100,4594,100,4526,100C4457.1,100,4389,100,4320,100C4251.4,100,4183,100,4114,100C4045.7,100,3977,100,3909,100C3840,100,3771,100,3703,100C3634.3,100,3566,100,3497,100C3428.6,100,3360,100,3291,100C3222.9,100,3154,100,3086,100C3017.1,100,2949,100,2880,100C2811.4,100,2743,100,2674,100C2605.7,100,2537,100,2469,100C2400,100,2331,100,2263,100C2194.3,100,2126,100,2057,100C1988.6,100,1920,100,1851,100C1782.9,100,1714,100,1646,100C1577.1,100,1509,100,1440,100C1371.4,100,1303,100,1234,100C1165.7,100,1097,100,1029,100C960,100,891,100,823,100C754.3,100,686,100,617,100C548.6,100,480,100,411,100C342.9,100,274,100,206,100C137.1,100,69,100,34,100L0,100Z"/></svg>