<svg width="40" height="40" viewBox="0 0 40 40" fill="none" xmlns="http://www.w3.org/2000/svg">
<path fill-rule="evenodd" clip-rule="evenodd" d="M20 39.2C25.0921 39.2 29.9757 37.1771 33.5764 33.5764C37.1771 29.9757 39.2 25.0921 39.2 20C39.2 14.9078 37.1771 10.0242 33.5764 6.42354C29.9757 2.82284 25.0921 0.799988 20 0.799988C14.9078 0.799988 10.0242 2.82284 6.42354 6.42354C2.82284 10.0242 0.799988 14.9078 0.799988 20C0.799988 25.0921 2.82284 29.9757 6.42354 33.5764C10.0242 37.1771 14.9078 39.2 20 39.2ZM6.39679 15.2648C7.28788 12.7129 8.87787 10.4626 10.9856 8.77039C11.6288 9.75199 12.7376 10.4 14 10.4C14.9548 10.4 15.8704 10.7793 16.5456 11.4544C17.2207 12.1295 17.6 13.0452 17.6 14V15.2C17.6 16.473 18.1057 17.6939 19.0059 18.5941C19.9061 19.4943 21.1269 20 22.4 20C23.673 20 24.8939 19.4943 25.7941 18.5941C26.6943 17.6939 27.2 16.473 27.2 15.2C27.1996 14.1258 27.5595 13.0825 28.2222 12.2371C28.8849 11.3917 29.812 10.793 30.8552 10.5368C33.1455 13.1568 34.4054 16.52 34.4 20C34.4 20.816 34.3328 21.62 34.2008 22.4H32C30.7269 22.4 29.5061 22.9057 28.6059 23.8059C27.7057 24.7061 27.2 25.927 27.2 27.2V32.4728C25.0119 33.7388 22.5279 34.4037 20 34.4V29.6C20 28.327 19.4943 27.1061 18.5941 26.2059C17.6939 25.3057 16.473 24.8 15.2 24.8C13.9269 24.8 12.706 24.2943 11.8059 23.3941C10.9057 22.4939 10.4 21.273 10.4 20C10.4004 18.8648 9.99848 17.7662 9.26558 16.8993C8.53268 16.0323 7.51624 15.4532 6.39679 15.2648Z" fill="#7E3AF2"/>
</svg>
